<svg xmlns="http://www.w3.org/2000/svg" xmlns:xlink="http://www.w3.org/1999/xlink" width="860" height="601.04"><rect width="860" height="601.04" rx="5" ry="5" class="a"/><svg y="0%" x="0%"><circle cx="20" cy="20" r="6" fill="#ff5f58"/><circle cx="40" cy="20" r="6" fill="#ffbd2e"/><circle cx="60" cy="20" r="6" fill="#18c132"/></svg><svg height="521.04" viewBox="0 0 80 52.104" width="800" x="25" xmlns="http://www.w3.org/2000/svg" xmlns:xlink="http://www.w3.org/1999/xlink" y="60"><style>@keyframes p{0%{transform:translateX(0)}2.56%{transform:translateX(-80px)}4.1%{transform:translateX(-160px)}4.36%{transform:translateX(-240px)}4.62%{transform:translateX(-320px)}4.87%{transform:translateX(-400px)}5.13%{transform:translateX(-480px)}5.38%{transform:translateX(-560px)}5.64%{transform:translateX(-640px)}5.9%{transform:translateX(-720px)}6.15%{transform:translateX(-800px)}6.41%{transform:translateX(-880px)}6.67%{transform:translateX(-960px)}6.92%{transform:translateX(-1040px)}7.18%{transform:translateX(-1120px)}7.44%{transform:translateX(-1200px)}7.69%{transform:translateX(-1280px)}7.95%{transform:translateX(-1360px)}8.21%{transform:translateX(-1440px)}8.46%{transform:translateX(-1520px)}8.72%{transform:translateX(-1600px)}8.97%{transform:translateX(-1680px)}9.49%{transform:translateX(-1760px)}12.82%{transform:translateX(-1840px)}16.41%{transform:translateX(-1920px)}17.44%{transform:translateX(-2000px)}18.97%{transform:translateX(-2080px)}22.05%{transform:translateX(-2160px)}25.64%{transform:translateX(-2240px)}26.67%{transform:translateX(-2320px)}28.21%{transform:translateX(-2400px)}30.77%{transform:translateX(-2480px)}33.33%{transform:translateX(-2560px)}35.9%{transform:translateX(-2640px)}38.46%{transform:translateX(-2720px)}41.03%{transform:translateX(-2800px)}43.59%{transform:translateX(-2880px)}46.15%{transform:translateX(-2960px)}50.26%{transform:translateX(-3040px)}51.28%{transform:translateX(-3120px)}52.82%{transform:translateX(-3200px)}55.38%{transform:translateX(-3280px)}58.97%{transform:translateX(-3360px)}59.49%{transform:translateX(-3440px)}62.56%{transform:translateX(-3520px)}63.08%{transform:translateX(-3600px)}66.15%{transform:translateX(-3680px)}66.67%{transform:translateX(-3760px)}69.74%{transform:translateX(-3840px)}74.36%{transform:translateX(-3920px)}to{transform:translateX(-4000px)}}.a{fill:#282d35}.f{fill:#a8cc8c;font-weight:700;white-space:pre}.g{fill:#b9c0cb}.g,.h,.i{white-space:pre}.h{fill:#b9c0cb;font-weight:700}.i{fill:#e88388}.i,.j{font-weight:700}.j,.k,.l{fill:#dbab79;white-space:pre}.l{fill:#71bef2;font-weight:700}</style><g font-family="Monaco,Consolas,Menlo,'Bitstream Vera Sans Mono','Powerline Symbols',monospace" font-size="1.67"><defs><symbol id="1"><text y="1.67" class="f">$</text></symbol><symbol id="2"><text y="1.67" class="f">$</text><text x="2.004" y="1.67" class="g">pip</text></symbol><symbol id="3"><text y="1.67" class="f">$</text><text x="2.004" y="1.67" class="g">pip</text><text x="6.012" y="1.67" class="g">install</text></symbol><symbol id="4"><text y="1.67" class="f">$</text><text x="2.004" y="1.67" class="g">pip</text><text x="6.012" y="1.67" class="g">install</text><text x="14.028" y="1.67" class="g">scherlok</text></symbol><symbol id="5"><text y="1.67" class="g">Successfully</text><text x="13.026" y="1.67" class="g">installed</text><text x="23.046" y="1.67" class="g">scherlok-0.2.2</text></symbol><symbol id="6"><text y="1.67" class="f">$</text><text x="2.004" y="1.67" class="g">scherlok</text><text x="11.022" y="1.67" class="g">connect</text><text x="19.038" y="1.67" class="g">postgres://localhost/mydb</text></symbol><symbol id="7"><text y="1.67" class="f">✓</text><text x="2.004" y="1.67" class="g">Connected</text><text x="12.024" y="1.67" class="g">to</text><text x="15.03" y="1.67" class="g">PostgreSQL</text><text x="26.052" y="1.67" class="g">—</text><text x="28.056" y="1.67" class="h">5</text><text x="30.06" y="1.67" class="h">tables</text><text x="37.074" y="1.67" class="g">found</text></symbol><symbol id="8"><text y="1.67" class="f">$</text><text x="2.004" y="1.67" class="g">scherlok</text><text x="11.022" y="1.67" class="g">investigate</text></symbol><symbol id="9"><text x="2.004" y="1.67" class="g">Profiling</text><text x="12.024" y="1.67" class="h">5</text><text x="14.028" y="1.67" class="g">tables...</text></symbol><symbol id="10"><text x="2.004" y="1.67" class="f">✓</text><text x="4.008" y="1.67" class="g">users</text><text x="19.038" y="1.67" class="g">—</text><text x="21.042" y="1.67" class="h">45,231</text><text x="28.056" y="1.67" class="g">rows,</text><text x="34.068" y="1.67" class="g">8</text><text x="36.072" y="1.67" class="g">columns</text></symbol><symbol id="11"><text x="2.004" y="1.67" class="f">✓</text><text x="4.008" y="1.67" class="g">orders</text><text x="19.038" y="1.67" class="g">—</text><text x="21.042" y="1.67" class="h">1,203,847</text><text x="31.062" y="1.67" class="g">rows,</text><text x="37.074" y="1.67" class="g">15</text><text x="40.08" y="1.67" class="g">columns</text></symbol><symbol id="12"><text x="2.004" y="1.67" class="f">✓</text><text x="4.008" y="1.67" class="g">products</text><text x="19.038" y="1.67" class="g">—</text><text x="21.042" y="1.67" class="h">892</text><text x="25.05" y="1.67" class="g">rows,</text><text x="31.062" y="1.67" class="g">12</text><text x="34.068" y="1.67" class="g">columns</text></symbol><symbol id="13"><text x="2.004" y="1.67" class="f">✓</text><text x="4.008" y="1.67" class="g">transactions</text><text x="19.038" y="1.67" class="g">—</text><text x="21.042" y="1.67" class="h">8,421,033</text><text x="31.062" y="1.67" class="g">rows,</text><text x="37.074" y="1.67" class="g">22</text><text x="40.08" y="1.67" class="g">columns</text></symbol><symbol id="14"><text x="2.004" y="1.67" class="f">✓</text><text x="4.008" y="1.67" class="g">events</text><text x="19.038" y="1.67" class="g">—</text><text x="21.042" y="1.67" class="h">312,445</text><text x="29.058" y="1.67" class="g">rows,</text><text x="35.07" y="1.67" class="g">10</text><text x="38.076" y="1.67" class="g">columns</text></symbol><symbol id="15"><text x="2.004" y="1.67" class="g">Done.</text><text x="8.016" y="1.67" class="g">Profiles</text><text x="17.034" y="1.67" class="g">saved.</text></symbol><symbol id="16"><text y="1.67" class="f">$</text><text x="2.004" y="1.67" class="g">scherlok</text><text x="11.022" y="1.67" class="g">watch</text></symbol><symbol id="17"><text x="2.004" y="1.67" class="g">Checking</text><text x="11.022" y="1.67" class="h">5</text><text x="13.026" y="1.67" class="g">tables</text><text x="20.04" y="1.67" class="g">against</text><text x="28.056" y="1.67" class="g">learned</text><text x="36.072" y="1.67" class="g">profiles...</text></symbol><symbol id="18"><text x="2.004" y="1.67" class="i">🔴</text><text x="5.01" y="1.67" class="i">CRITICAL</text><text x="15.03" y="1.67" class="h">orders</text><text x="27.054" y="1.67" class="g">volume_drop</text><text x="42.084" y="1.67" class="g">Row</text><text x="46.092" y="1.67" class="g">count</text><text x="52.104" y="1.67" class="g">dropped</text><text x="60.12" y="1.67" class="i">52%</text><text x="64.128" y="1.67" class="g">(1,203,847</text><text x="75.15" y="1.67" class="g">→</text><text x="77.154" y="1.67" class="g">578</text></symbol><symbol id="19"><text y="1.67" class="g">,412)</text></symbol><symbol id="20"><text x="2.004" y="1.67" class="j">🟡</text><text x="5.01" y="1.67" class="j">WARNING</text><text x="15.03" y="1.67" class="h">users</text><text x="27.054" y="1.67" class="g">null_increase</text><text x="42.084" y="1.67" class="g">Column</text><text x="49.098" y="1.67" class="g">&quot;email&quot;:</text><text x="58.116" y="1.67" class="g">NULL</text><text x="63.126" y="1.67" class="g">rate</text><text x="68.136" y="1.67" class="k">2.1%</text><text x="73.146" y="1.67" class="k">→</text><text x="75.15" y="1.67" class="k">18.7%</text></symbol><symbol id="21"><text x="2.004" y="1.67" class="l">🔵</text><text x="5.01" y="1.67" class="l">INFO</text><text x="15.03" y="1.67" class="h">products</text><text x="27.054" y="1.67" class="g">distribution</text><text x="42.084" y="1.67" class="g">Column</text><text x="49.098" y="1.67" class="g">&quot;price&quot;:</text><text x="58.116" y="1.67" class="g">mean</text><text x="63.126" y="1.67" class="g">shifted</text><text x="71.142" y="1.67" style="white-space:pre" fill="#71bef2">3.2σ</text></symbol><symbol id="22"><text x="2.004" y="1.67" class="h">3</text><text x="4.008" y="1.67" class="h">anomalies</text><text x="14.028" y="1.67" class="h">detected.</text><text x="24.048" y="1.67" class="g">Exit</text><text x="29.058" y="1.67" class="g">code:</text><text x="35.07" y="1.67" class="i">1</text></symbol><symbol id="a"><path fill="transparent" d="M0 0h80v25H0z"/></symbol><symbol id="b"><path fill="#6f7683" d="M0 0h1.102v2.171H0z"/></symbol></defs><path class="a" d="M0 0h80v52.104H0z"/><g style="animation-duration:19.5s;animation-iteration-count:infinite;animation-name:p;animation-timing-function:steps(1,end)"><svg width="4080"><svg><use xlink:href="#a"/><use xlink:href="#b" x="-.004"/></svg><svg x="80"><use xlink:href="#a"/><use xlink:href="#b" x="1.996"/><use xlink:href="#1"/></svg><svg x="160"><use xlink:href="#a"/><use xlink:href="#b" x="2.996"/><text y="1.67" class="f">$</text><text x="2.004" y="1.67" class="g">p</text></svg><svg x="240"><use xlink:href="#a"/><use xlink:href="#b" x="3.996"/><text y="1.67" class="f">$</text><text x="2.004" y="1.67" class="g">pi</text></svg><svg x="320"><use xlink:href="#a"/><use xlink:href="#b" x="4.996"/><use xlink:href="#2"/></svg><svg x="400"><use xlink:href="#a"/><use xlink:href="#b" x="5.996"/><use xlink:href="#2"/></svg><svg x="480"><use xlink:href="#a"/><use xlink:href="#b" x="6.996"/><text y="1.67" class="f">$</text><text x="2.004" y="1.67" class="g">pip</text><text x="6.012" y="1.67" class="g">i</text></svg><svg x="560"><use xlink:href="#a"/><use xlink:href="#b" x="7.996"/><text y="1.67" class="f">$</text><text x="2.004" y="1.67" class="g">pip</text><text x="6.012" y="1.67" class="g">in</text></svg><svg x="640"><use xlink:href="#a"/><use xlink:href="#b" x="8.996"/><text y="1.67" class="f">$</text><text x="2.004" y="1.67" class="g">pip</text><text x="6.012" y="1.67" class="g">ins</text></svg><svg x="720"><use xlink:href="#a"/><use xlink:href="#b" x="9.996"/><text y="1.67" class="f">$</text><text x="2.004" y="1.67" class="g">pip</text><text x="6.012" y="1.67" class="g">inst</text></svg><svg x="800"><use xlink:href="#a"/><use xlink:href="#b" x="10.996"/><text y="1.67" class="f">$</text><text x="2.004" y="1.67" class="g">pip</text><text x="6.012" y="1.67" class="g">insta</text></svg><svg x="880"><use xlink:href="#a"/><use xlink:href="#b" x="11.996"/><text y="1.67" class="f">$</text><text x="2.004" y="1.67" class="g">pip</text><text x="6.012" y="1.67" class="g">instal</text></svg><svg x="960"><use xlink:href="#a"/><use xlink:href="#b" x="12.996"/><use xlink:href="#3"/></svg><svg x="1040"><use xlink:href="#a"/><use xlink:href="#b" x="13.996"/><use xlink:href="#3"/></svg><svg x="1120"><use xlink:href="#a"/><use xlink:href="#b" x="14.996"/><text y="1.67" class="f">$</text><text x="2.004" y="1.67" class="g">pip</text><text x="6.012" y="1.67" class="g">install</text><text x="14.028" y="1.67" class="g">s</text></svg><svg x="1200"><use xlink:href="#a"/><use xlink:href="#b" x="15.996"/><text y="1.67" class="f">$</text><text x="2.004" y="1.67" class="g">pip</text><text x="6.012" y="1.67" class="g">install</text><text x="14.028" y="1.67" class="g">sc</text></svg><svg x="1280"><use xlink:href="#a"/><use xlink:href="#b" x="16.996"/><text y="1.67" class="f">$</text><text x="2.004" y="1.67" class="g">pip</text><text x="6.012" y="1.67" class="g">install</text><text x="14.028" y="1.67" class="g">sch</text></svg><svg x="1360"><use xlink:href="#a"/><use xlink:href="#b" x="17.996"/><text y="1.67" class="f">$</text><text x="2.004" y="1.67" class="g">pip</text><text x="6.012" y="1.67" class="g">install</text><text x="14.028" y="1.67" class="g">sche</text></svg><svg x="1440"><use xlink:href="#a"/><use xlink:href="#b" x="18.996"/><text y="1.67" class="f">$</text><text x="2.004" y="1.67" class="g">pip</text><text x="6.012" y="1.67" class="g">install</text><text x="14.028" y="1.67" class="g">scher</text></svg><svg x="1520"><use xlink:href="#a"/><use xlink:href="#b" x="19.996"/><text y="1.67" class="f">$</text><text x="2.004" y="1.67" class="g">pip</text><text x="6.012" y="1.67" class="g">install</text><text x="14.028" y="1.67" class="g">scherl</text></svg><svg x="1600"><use xlink:href="#a"/><use xlink:href="#b" x="20.996"/><text y="1.67" class="f">$</text><text x="2.004" y="1.67" class="g">pip</text><text x="6.012" y="1.67" class="g">install</text><text x="14.028" y="1.67" class="g">scherlo</text></svg><svg x="1680"><use xlink:href="#a"/><use xlink:href="#b" x="21.996"/><use xlink:href="#4"/></svg><svg x="1760"><use xlink:href="#a"/><use xlink:href="#b" x="-.004" y="2.146"/><use xlink:href="#4"/></svg><svg x="1840"><use xlink:href="#a"/><use xlink:href="#b" x="-.004" y="4.317"/><use xlink:href="#4"/><use xlink:href="#5" y="2.171"/></svg><svg x="1920"><use xlink:href="#a"/><use xlink:href="#b" x="1.996" y="6.488"/><use xlink:href="#4"/><use xlink:href="#5" y="2.171"/><use xlink:href="#1" y="6.513"/></svg><svg x="2000"><use xlink:href="#a"/><use xlink:href="#b" x="43.996" y="6.488"/><use xlink:href="#4"/><use xlink:href="#5" y="2.171"/><use xlink:href="#6" y="6.513"/></svg><svg x="2080"><use xlink:href="#a"/><use xlink:href="#b" x="-.004" y="8.659"/><use xlink:href="#4"/><use xlink:href="#5" y="2.171"/><use xlink:href="#6" y="6.513"/></svg><svg x="2160"><use xlink:href="#a"/><use xlink:href="#b" x="-.004" y="10.83"/><use xlink:href="#4"/><use xlink:href="#5" y="2.171"/><use xlink:href="#6" y="6.513"/><use xlink:href="#7" y="8.684"/></svg><svg x="2240"><use xlink:href="#a"/><use xlink:href="#b" x="1.996" y="13.001"/><use xlink:href="#4"/><use xlink:href="#5" y="2.171"/><use xlink:href="#6" y="6.513"/><use xlink:href="#7" y="8.684"/><use xlink:href="#1" y="13.026"/></svg><svg x="2320"><use xlink:href="#a"/><use xlink:href="#b" x="21.996" y="13.001"/><use xlink:href="#4"/><use xlink:href="#5" y="2.171"/><use xlink:href="#6" y="6.513"/><use xlink:href="#7" y="8.684"/><use xlink:href="#8" y="13.026"/></svg><svg x="2400"><use xlink:href="#a"/><use xlink:href="#b" x="-.004" y="15.172"/><use xlink:href="#4"/><use xlink:href="#5" y="2.171"/><use xlink:href="#6" y="6.513"/><use xlink:href="#7" y="8.684"/><use xlink:href="#8" y="13.026"/></svg><svg x="2480"><use xlink:href="#a"/><use xlink:href="#b" x="-.004" y="19.514"/><use xlink:href="#4"/><use xlink:href="#5" y="2.171"/><use xlink:href="#6" y="6.513"/><use xlink:href="#7" y="8.684"/><use xlink:href="#8" y="13.026"/><use xlink:href="#9" y="17.368"/></svg><svg x="2560"><use xlink:href="#a"/><use xlink:href="#b" x="-.004" y="21.685"/><use xlink:href="#4"/><use xlink:href="#5" y="2.171"/><use xlink:href="#6" y="6.513"/><use xlink:href="#7" y="8.684"/><use xlink:href="#8" y="13.026"/><use xlink:href="#9" y="17.368"/><use xlink:href="#10" y="19.539"/></svg><svg x="2640"><use xlink:href="#a"/><use xlink:href="#b" x="-.004" y="23.856"/><use xlink:href="#4"/><use xlink:href="#5" y="2.171"/><use xlink:href="#6" y="6.513"/><use xlink:href="#7" y="8.684"/><use xlink:href="#8" y="13.026"/><use xlink:href="#9" y="17.368"/><use xlink:href="#10" y="19.539"/><use xlink:href="#11" y="21.71"/></svg><svg x="2720"><use xlink:href="#a"/><use xlink:href="#b" x="-.004" y="26.027"/><use xlink:href="#4"/><use xlink:href="#5" y="2.171"/><use xlink:href="#6" y="6.513"/><use xlink:href="#7" y="8.684"/><use xlink:href="#8" y="13.026"/><use xlink:href="#9" y="17.368"/><use xlink:href="#10" y="19.539"/><use xlink:href="#11" y="21.71"/><use xlink:href="#12" y="23.881"/></svg><svg x="2800"><use xlink:href="#a"/><use xlink:href="#b" x="-.004" y="28.198"/><use xlink:href="#4"/><use xlink:href="#5" y="2.171"/><use xlink:href="#6" y="6.513"/><use xlink:href="#7" y="8.684"/><use xlink:href="#8" y="13.026"/><use xlink:href="#9" y="17.368"/><use xlink:href="#10" y="19.539"/><use xlink:href="#11" y="21.71"/><use xlink:href="#12" y="23.881"/><use xlink:href="#13" y="26.052"/></svg><svg x="2880"><use xlink:href="#a"/><use xlink:href="#b" x="-.004" y="30.369"/><use xlink:href="#4"/><use xlink:href="#5" y="2.171"/><use xlink:href="#6" y="6.513"/><use xlink:href="#7" y="8.684"/><use xlink:href="#8" y="13.026"/><use xlink:href="#9" y="17.368"/><use xlink:href="#10" y="19.539"/><use xlink:href="#11" y="21.71"/><use xlink:href="#12" y="23.881"/><use xlink:href="#13" y="26.052"/><use xlink:href="#14" y="28.223"/></svg><svg x="2960"><use xlink:href="#a"/><use xlink:href="#b" x="-.004" y="34.711"/><use xlink:href="#4"/><use xlink:href="#5" y="2.171"/><use xlink:href="#6" y="6.513"/><use xlink:href="#7" y="8.684"/><use xlink:href="#8" y="13.026"/><use xlink:href="#9" y="17.368"/><use xlink:href="#10" y="19.539"/><use xlink:href="#11" y="21.71"/><use xlink:href="#12" y="23.881"/><use xlink:href="#13" y="26.052"/><use xlink:href="#14" y="28.223"/><use xlink:href="#15" y="32.565"/></svg><svg x="3040"><use xlink:href="#a"/><use xlink:href="#b" x="1.996" y="36.882"/><use xlink:href="#4"/><use xlink:href="#5" y="2.171"/><use xlink:href="#6" y="6.513"/><use xlink:href="#7" y="8.684"/><use xlink:href="#8" y="13.026"/><use xlink:href="#9" y="17.368"/><use xlink:href="#10" y="19.539"/><use xlink:href="#11" y="21.71"/><use xlink:href="#12" y="23.881"/><use xlink:href="#13" y="26.052"/><use xlink:href="#14" y="28.223"/><use xlink:href="#15" y="32.565"/><use xlink:href="#1" y="36.907"/></svg><svg x="3120"><use xlink:href="#a"/><use xlink:href="#b" x="15.996" y="36.882"/><use xlink:href="#4"/><use xlink:href="#5" y="2.171"/><use xlink:href="#6" y="6.513"/><use xlink:href="#7" y="8.684"/><use xlink:href="#8" y="13.026"/><use xlink:href="#9" y="17.368"/><use xlink:href="#10" y="19.539"/><use xlink:href="#11" y="21.71"/><use xlink:href="#12" y="23.881"/><use xlink:href="#13" y="26.052"/><use xlink:href="#14" y="28.223"/><use xlink:href="#15" y="32.565"/><use xlink:href="#16" y="36.907"/></svg><svg x="3200"><use xlink:href="#a"/><use xlink:href="#b" x="-.004" y="39.053"/><use xlink:href="#4"/><use xlink:href="#5" y="2.171"/><use xlink:href="#6" y="6.513"/><use xlink:href="#7" y="8.684"/><use xlink:href="#8" y="13.026"/><use xlink:href="#9" y="17.368"/><use xlink:href="#10" y="19.539"/><use xlink:href="#11" y="21.71"/><use xlink:href="#12" y="23.881"/><use xlink:href="#13" y="26.052"/><use xlink:href="#14" y="28.223"/><use xlink:href="#15" y="32.565"/><use xlink:href="#16" y="36.907"/></svg><svg x="3280"><use xlink:href="#a"/><use xlink:href="#b" x="-.004" y="45.566"/><use xlink:href="#4"/><use xlink:href="#5" y="2.171"/><use xlink:href="#6" y="6.513"/><use xlink:href="#7" y="8.684"/><use xlink:href="#8" y="13.026"/><use xlink:href="#9" y="17.368"/><use xlink:href="#10" y="19.539"/><use xlink:href="#11" y="21.71"/><use xlink:href="#12" y="23.881"/><use xlink:href="#13" y="26.052"/><use xlink:href="#14" y="28.223"/><use xlink:href="#15" y="32.565"/><use xlink:href="#16" y="36.907"/><use xlink:href="#17" y="41.249"/></svg><svg x="3360"><use xlink:href="#a"/><use xlink:href="#b" x="41.996" y="45.566"/><use xlink:href="#4"/><use xlink:href="#5" y="2.171"/><use xlink:href="#6" y="6.513"/><use xlink:href="#7" y="8.684"/><use xlink:href="#8" y="13.026"/><use xlink:href="#9" y="17.368"/><use xlink:href="#10" y="19.539"/><use xlink:href="#11" y="21.71"/><use xlink:href="#12" y="23.881"/><use xlink:href="#13" y="26.052"/><use xlink:href="#14" y="28.223"/><use xlink:href="#15" y="32.565"/><use xlink:href="#16" y="36.907"/><use xlink:href="#17" y="41.249"/><text x="2.004" y="47.261" class="i">🔴</text><text x="5.01" y="47.261" class="i">CRITICAL</text><text x="15.03" y="47.261" class="h">orders</text><text x="27.054" y="47.261" class="g">volume_drop</text></svg><svg x="3440"><use xlink:href="#a"/><use xlink:href="#b" x="-.004" y="49.908"/><use xlink:href="#4"/><use xlink:href="#5" y="2.171"/><use xlink:href="#6" y="6.513"/><use xlink:href="#7" y="8.684"/><use xlink:href="#8" y="13.026"/><use xlink:href="#9" y="17.368"/><use xlink:href="#10" y="19.539"/><use xlink:href="#11" y="21.71"/><use xlink:href="#12" y="23.881"/><use xlink:href="#13" y="26.052"/><use xlink:href="#14" y="28.223"/><use xlink:href="#15" y="32.565"/><use xlink:href="#16" y="36.907"/><use xlink:href="#17" y="41.249"/><use xlink:href="#18" y="45.591"/><use xlink:href="#19" y="47.762"/></svg><svg x="3520"><use xlink:href="#a"/><use xlink:href="#b" x="41.996" y="49.908"/><use xlink:href="#4"/><use xlink:href="#5" y="2.171"/><use xlink:href="#6" y="6.513"/><use xlink:href="#7" y="8.684"/><use xlink:href="#8" y="13.026"/><use xlink:href="#9" y="17.368"/><use xlink:href="#10" y="19.539"/><use xlink:href="#11" y="21.71"/><use xlink:href="#12" y="23.881"/><use xlink:href="#13" y="26.052"/><use xlink:href="#14" y="28.223"/><use xlink:href="#15" y="32.565"/><use xlink:href="#16" y="36.907"/><use xlink:href="#17" y="41.249"/><use xlink:href="#18" y="45.591"/><use xlink:href="#19" y="47.762"/><text x="2.004" y="51.603" class="j">🟡</text><text x="5.01" y="51.603" class="j">WARNING</text><text x="15.03" y="51.603" class="h">users</text><text x="27.054" y="51.603" class="g">null_increase</text></svg><svg x="3600"><use xlink:href="#a"/><use xlink:href="#b" x="-.004" y="52.079"/><use xlink:href="#4"/><use xlink:href="#5" y="2.171"/><use xlink:href="#6" y="6.513"/><use xlink:href="#7" y="8.684"/><use xlink:href="#8" y="13.026"/><use xlink:href="#9" y="17.368"/><use xlink:href="#10" y="19.539"/><use xlink:href="#11" y="21.71"/><use xlink:href="#12" y="23.881"/><use xlink:href="#13" y="26.052"/><use xlink:href="#14" y="28.223"/><use xlink:href="#15" y="32.565"/><use xlink:href="#16" y="36.907"/><use xlink:href="#17" y="41.249"/><use xlink:href="#18" y="45.591"/><use xlink:href="#19" y="47.762"/><use xlink:href="#20" y="49.933"/></svg><svg x="3680"><use xlink:href="#a"/><use xlink:href="#b" x="41.996" y="52.079"/><use xlink:href="#4"/><use xlink:href="#5" y="2.171"/><use xlink:href="#6" y="6.513"/><use xlink:href="#7" y="8.684"/><use xlink:href="#8" y="13.026"/><use xlink:href="#9" y="17.368"/><use xlink:href="#10" y="19.539"/><use xlink:href="#11" y="21.71"/><use xlink:href="#12" y="23.881"/><use xlink:href="#13" y="26.052"/><use xlink:href="#14" y="28.223"/><use xlink:href="#15" y="32.565"/><use xlink:href="#16" y="36.907"/><use xlink:href="#17" y="41.249"/><use xlink:href="#18" y="45.591"/><use xlink:href="#19" y="47.762"/><use xlink:href="#20" y="49.933"/><text x="2.004" y="53.774" class="l">🔵</text><text x="5.01" y="53.774" class="l">INFO</text><text x="15.03" y="53.774" class="h">products</text><text x="27.054" y="53.774" class="g">distribution</text></svg><svg x="3760"><use xlink:href="#a"/><use xlink:href="#b" x="-.004" y="52.079"/><use xlink:href="#5"/><use xlink:href="#6" y="4.342"/><use xlink:href="#7" y="6.513"/><use xlink:href="#8" y="10.855"/><use xlink:href="#9" y="15.197"/><use xlink:href="#10" y="17.368"/><use xlink:href="#11" y="19.539"/><use xlink:href="#12" y="21.71"/><use xlink:href="#13" y="23.881"/><use xlink:href="#14" y="26.052"/><use xlink:href="#15" y="30.394"/><use xlink:href="#16" y="34.736"/><use xlink:href="#17" y="39.078"/><use xlink:href="#18" y="43.42"/><use xlink:href="#19" y="45.591"/><use xlink:href="#20" y="47.762"/><use xlink:href="#21" y="49.933"/></svg><svg x="3840"><use xlink:href="#a"/><use xlink:href="#b" x="-.004" y="52.079"/><use xlink:href="#6"/><use xlink:href="#7" y="2.171"/><use xlink:href="#8" y="6.513"/><use xlink:href="#9" y="10.855"/><use xlink:href="#10" y="13.026"/><use xlink:href="#11" y="15.197"/><use xlink:href="#12" y="17.368"/><use xlink:href="#13" y="19.539"/><use xlink:href="#14" y="21.71"/><use xlink:href="#15" y="26.052"/><use xlink:href="#16" y="30.394"/><use xlink:href="#17" y="34.736"/><use xlink:href="#18" y="39.078"/><use xlink:href="#19" y="41.249"/><use xlink:href="#20" y="43.42"/><use xlink:href="#21" y="45.591"/><use xlink:href="#22" y="49.933"/></svg><svg x="3920"><use xlink:href="#a"/><use xlink:href="#b" x="1.996" y="52.079"/><use xlink:href="#7"/><use xlink:href="#8" y="4.342"/><use xlink:href="#9" y="8.684"/><use xlink:href="#10" y="10.855"/><use xlink:href="#11" y="13.026"/><use xlink:href="#12" y="15.197"/><use xlink:href="#13" y="17.368"/><use xlink:href="#14" y="19.539"/><use xlink:href="#15" y="23.881"/><use xlink:href="#16" y="28.223"/><use xlink:href="#17" y="32.565"/><use xlink:href="#18" y="36.907"/><use xlink:href="#19" y="39.078"/><use xlink:href="#20" y="41.249"/><use xlink:href="#21" y="43.42"/><use xlink:href="#22" y="47.762"/><use xlink:href="#1" y="52.104"/></svg><svg x="4000"><use xlink:href="#a"/><use xlink:href="#b" x="2.996" y="52.079"/><use xlink:href="#7"/><use xlink:href="#8" y="4.342"/><use xlink:href="#9" y="8.684"/><use xlink:href="#10" y="10.855"/><use xlink:href="#11" y="13.026"/><use xlink:href="#12" y="15.197"/><use xlink:href="#13" y="17.368"/><use xlink:href="#14" y="19.539"/><use xlink:href="#15" y="23.881"/><use xlink:href="#16" y="28.223"/><use xlink:href="#17" y="32.565"/><use xlink:href="#18" y="36.907"/><use xlink:href="#19" y="39.078"/><use xlink:href="#20" y="41.249"/><use xlink:href="#21" y="43.42"/><use xlink:href="#22" y="47.762"/><use xlink:href="#1" y="52.104"/></svg></svg></g></g></svg></svg>